<svg width="256" height="80" viewBox="0 0 256 80" fill="none" xmlns="http://www.w3.org/2000/svg">
<g filter="url(#filter0_d_176_221)">
<path d="M34.6174 9.16789C36.1204 8.43117 37.8796 8.43117 39.3826 9.16789L50.05 14.3967L59.912 21.0205C61.3015 21.9538 62.1811 23.4774 62.2946 25.1474L63.1 37L62.2946 48.8526C62.1811 50.5226 61.3015 52.0462 59.912 52.9795L50.05 59.6033L39.3826 64.8321C37.8796 65.5688 36.1204 65.5688 34.6174 64.8321L23.95 59.6033L14.088 52.9795C12.6985 52.0462 11.8189 50.5226 11.7054 48.8526L10.9 37L11.7054 25.1474C11.8189 23.4774 12.6985 21.9538 14.088 21.0205L23.95 14.3967L34.6174 9.16789Z" fill="#F1E9FF"/>
<path d="M37.6807 12.6399L48.1122 17.7531L57.7561 24.2304C58.1531 24.497 58.4044 24.9323 58.4369 25.4095L59.2244 37L58.4369 48.5905C58.4044 49.0676 58.1531 49.503 57.7561 49.7696L48.1122 56.2469L37.6807 61.3601C37.2513 61.5706 36.7487 61.5706 36.3193 61.3601L25.8878 56.2469L16.2439 49.7696C15.8469 49.503 15.5956 49.0677 15.5631 48.5905L14.7756 37L15.5631 25.4095C15.5956 24.9323 15.8469 24.497 16.2439 24.2304L25.8878 17.7531L36.3193 12.6399C36.7487 12.4294 37.2513 12.4294 37.6807 12.6399Z" stroke="url(#paint0_linear_176_221)" stroke-width="7.73333"/>
</g>
<g filter="url(#filter1_d_176_221)">
<path d="M32.7517 47.1958C30.9457 45.3898 30.8976 42.5099 32.6442 40.7633L55.2335 18.1739C56.9801 16.4273 59.8601 16.4755 61.6661 18.2815V18.2815C63.472 20.0875 63.5202 22.9674 61.7736 24.714L39.1843 47.3033C37.4376 49.0499 34.5577 49.0018 32.7517 47.1958V47.1958Z" fill="url(#paint1_linear_176_221)"/>
</g>
<g filter="url(#filter2_d_176_221)">
<path d="M39.7437 47.0734C37.7798 49.0373 34.5957 49.0373 32.6318 47.0734L24.4449 38.8865C22.481 36.9226 22.481 33.7385 24.4449 31.7746V31.7746C26.4088 29.8107 29.5929 29.8107 31.5568 31.7746L39.7437 39.9615C41.7076 41.9254 41.7076 45.1095 39.7437 47.0734V47.0734Z" fill="url(#paint2_linear_176_221)"/>
</g>
<path d="M93.9402 51.4366C90.3541 51.4366 87.4317 50.2723 85.1729 47.9437C82.9141 45.5918 81.7847 42.5471 81.7847 38.8097C81.7847 34.8626 82.9316 31.6608 85.2253 29.2041C87.5073 26.759 90.5462 25.5365 94.3418 25.5365C97.9163 25.5365 100.804 26.7066 103.004 29.0469C105.217 31.3755 106.323 34.461 106.323 38.3032C106.323 42.2269 105.176 45.3997 102.882 47.8214C102.801 47.9029 102.725 47.9844 102.655 48.0659C102.585 48.1358 102.509 48.2057 102.428 48.2755L108.768 54.3707H100.874L97.5553 51C96.4609 51.2911 95.2558 51.4366 93.9402 51.4366ZM94.1847 30.3917C92.217 30.3917 90.6452 31.1368 89.4692 32.6272C88.3049 34.1058 87.7227 36.0677 87.7227 38.5128C87.7227 40.9927 88.3049 42.9546 89.4692 44.3984C90.6335 45.8421 92.1588 46.564 94.0449 46.564C95.9893 46.564 97.5321 45.8654 98.6731 44.4682C99.8141 43.0478 100.385 41.0975 100.385 38.6175C100.385 36.0328 99.8316 34.0127 98.7255 32.5573C97.631 31.1136 96.1174 30.3917 94.1847 30.3917ZM128.45 50.1093C126.622 50.9942 124.236 51.4366 121.29 51.4366C117.448 51.4366 114.426 50.3072 112.226 48.0485C110.025 45.7897 108.925 42.78 108.925 39.0192C108.925 35.014 110.159 31.7656 112.627 29.2739C115.107 26.7823 118.321 25.5365 122.268 25.5365C124.713 25.5365 126.774 25.845 128.45 26.4621V31.8936C126.774 30.8923 124.864 30.3917 122.722 30.3917C120.37 30.3917 118.472 31.131 117.028 32.6097C115.585 34.0884 114.863 36.091 114.863 38.6175C114.863 41.0393 115.544 42.9721 116.906 44.4158C118.268 45.8479 120.102 46.564 122.408 46.564C124.608 46.564 126.622 46.0284 128.45 44.9572V50.1093ZM161.354 51H155.783V36.0153C155.783 34.3969 155.852 32.6097 155.992 30.6537H155.852C155.561 32.1905 155.299 33.2966 155.067 33.9719L149.198 51H144.588L138.615 34.1466C138.452 33.6925 138.19 32.5282 137.829 30.6537H137.672C137.823 33.122 137.899 35.2876 137.899 37.1505V51H132.817V25.9557H141.077L146.194 40.8006C146.602 41.9882 146.899 43.1816 147.085 44.3809H147.19C147.504 42.9954 147.836 41.7903 148.185 40.7657L153.303 25.9557H161.354V51ZM191.847 51H176.932V25.9557H182.573V46.4243H191.847V51ZM209.574 51H204.352V48.4327H204.282C203.083 50.4353 201.307 51.4366 198.955 51.4366C197.22 51.4366 195.852 50.9476 194.851 49.9696C193.861 48.9799 193.367 47.6642 193.367 46.0226C193.367 42.5529 195.422 40.5503 199.532 40.0147L204.387 39.3685C204.387 37.4125 203.327 36.4345 201.208 36.4345C199.078 36.4345 197.052 37.069 195.13 38.3381V34.1815C195.899 33.7857 196.947 33.4364 198.274 33.1336C199.613 32.8309 200.83 32.6796 201.924 32.6796C207.024 32.6796 209.574 35.2236 209.574 40.3116V51ZM204.387 43.7347V42.5296L201.138 42.9488C199.345 43.1816 198.449 43.9908 198.449 45.3764C198.449 46.0051 198.664 46.5232 199.095 46.9307C199.537 47.3266 200.131 47.5245 200.876 47.5245C201.913 47.5245 202.757 47.1694 203.409 46.4592C204.061 45.7373 204.387 44.8291 204.387 43.7347ZM219.529 48.9217H219.459V51H213.94V24.5235H219.459V35.8057H219.529C220.891 33.7216 222.829 32.6796 225.344 32.6796C227.65 32.6796 229.425 33.4713 230.671 35.0548C231.917 36.6382 232.54 38.8038 232.54 41.5516C232.54 44.5322 231.812 46.9249 230.357 48.7296C228.901 50.5343 226.957 51.4366 224.524 51.4366C222.323 51.4366 220.658 50.5983 219.529 48.9217ZM219.371 41.377V43.2108C219.371 44.3634 219.703 45.3182 220.367 46.075C221.031 46.8318 221.881 47.2102 222.917 47.2102C224.174 47.2102 225.146 46.727 225.833 45.7606C226.532 44.7826 226.881 43.4029 226.881 41.6215C226.881 40.1428 226.561 38.9901 225.921 38.1635C225.292 37.3252 224.39 36.906 223.214 36.906C222.108 36.906 221.188 37.3193 220.454 38.146C219.732 38.9727 219.371 40.0496 219.371 41.377ZM238.583 51.4366C237.674 51.4366 236.918 51.1572 236.312 50.5983C235.707 50.0394 235.404 49.3525 235.404 48.5375C235.404 47.6992 235.713 47.0122 236.33 46.4766C236.958 45.9411 237.738 45.6733 238.67 45.6733C239.613 45.6733 240.381 45.9469 240.975 46.4941C241.581 47.0297 241.883 47.7108 241.883 48.5375C241.883 49.3874 241.575 50.086 240.958 50.6332C240.352 51.1688 239.561 51.4366 238.583 51.4366Z" fill="white"/>
<defs>
<filter id="filter0_d_176_221" x="0.0732355" y="0.881901" width="73.8535" height="78.4229" filterUnits="userSpaceOnUse" color-interpolation-filters="sRGB">
<feFlood flood-opacity="0" result="BackgroundImageFix"/>
<feColorMatrix in="SourceAlpha" type="matrix" values="0 0 0 0 0 0 0 0 0 0 0 0 0 0 0 0 0 0 127 0" result="hardAlpha"/>
<feOffset dy="3.09333"/>
<feGaussianBlur stdDeviation="5.41333"/>
<feComposite in2="hardAlpha" operator="out"/>
<feColorMatrix type="matrix" values="0 0 0 0 0 0 0 0 0 0 0 0 0 0 0 0 0 0 0.4 0"/>
<feBlend mode="normal" in2="BackgroundImageFix" result="effect1_dropShadow_176_221"/>
<feBlend mode="normal" in="SourceGraphic" in2="effect1_dropShadow_176_221" result="shape"/>
</filter>
<filter id="filter1_d_176_221" x="27.2405" y="16.895" width="39.9366" height="40.9675" filterUnits="userSpaceOnUse" color-interpolation-filters="sRGB">
<feFlood flood-opacity="0" result="BackgroundImageFix"/>
<feColorMatrix in="SourceAlpha" type="matrix" values="0 0 0 0 0 0 0 0 0 0 0 0 0 0 0 0 0 0 127 0" result="hardAlpha"/>
<feOffset dy="5.15555"/>
<feGaussianBlur stdDeviation="2.06222"/>
<feComposite in2="hardAlpha" operator="out"/>
<feColorMatrix type="matrix" values="0 0 0 0 0 0 0 0 0 0 0 0 0 0 0 0 0 0 0.17 0"/>
<feBlend mode="normal" in2="BackgroundImageFix" result="effect1_dropShadow_176_221"/>
<feBlend mode="normal" in="SourceGraphic" in2="effect1_dropShadow_176_221" result="shape"/>
</filter>
<filter id="filter2_d_176_221" x="18.8475" y="30.3018" width="26.4935" height="27.5246" filterUnits="userSpaceOnUse" color-interpolation-filters="sRGB">
<feFlood flood-opacity="0" result="BackgroundImageFix"/>
<feColorMatrix in="SourceAlpha" type="matrix" values="0 0 0 0 0 0 0 0 0 0 0 0 0 0 0 0 0 0 127 0" result="hardAlpha"/>
<feOffset dy="5.15555"/>
<feGaussianBlur stdDeviation="2.06222"/>
<feComposite in2="hardAlpha" operator="out"/>
<feColorMatrix type="matrix" values="0 0 0 0 0 0 0 0 0 0 0 0 0 0 0 0 0 0 0.17 0"/>
<feBlend mode="normal" in2="BackgroundImageFix" result="effect1_dropShadow_176_221"/>
<feBlend mode="normal" in="SourceGraphic" in2="effect1_dropShadow_176_221" result="shape"/>
</filter>
<linearGradient id="paint0_linear_176_221" x1="39.1146" y1="0.447917" x2="39.1146" y2="77.1771" gradientUnits="userSpaceOnUse">
<stop stop-color="#FF5F1D"/>
<stop offset="1" stop-color="#6420DE"/>
</linearGradient>
<linearGradient id="paint1_linear_176_221" x1="54.3943" y1="9.46391" x2="31.4928" y2="46.28" gradientUnits="userSpaceOnUse">
<stop stop-color="#0BD2BC"/>
<stop offset="1" stop-color="#F3ECFF"/>
</linearGradient>
<linearGradient id="paint2_linear_176_221" x1="36.4236" y1="53.6226" x2="22.3411" y2="25.5622" gradientUnits="userSpaceOnUse">
<stop stop-color="#F3ECFF"/>
<stop offset="1" stop-color="#0BD2BC"/>
</linearGradient>
</defs>
</svg>
